<svg xml:space="preserve" viewBox="282.624 221.184 457.728 346.112" width="457.728" y="0px" x="0px" xmlns:xlink="http://www.w3.org/1999/xlink" xmlns="http://www.w3.org/2000/svg" id="Layer_1" version="1.1" style="max-height: 500px" height="346.112">

<path style="opacity: 1; visibility: hidden;" data-index="1" d="M330.057861,496.063202 &#10;&#9;C341.991730,503.675079 353.934143,511.273651 365.857727,518.901550 &#10;&#9;C391.884766,535.551941 417.930389,552.173584 443.914825,568.890259 &#10;&#9;C465.295166,582.644958 486.591583,596.530151 507.949371,610.320068 &#10;&#9;C509.564484,611.362854 511.373352,612.105591 513.269958,613.442749 &#10;&#9;C513.298096,616.040100 513.018066,618.182556 513.017578,620.325073 &#10;&#9;C512.995728,712.294678 512.998779,804.264343 512.998779,896.233948 &#10;&#9;C512.998779,915.560913 512.953979,934.888123 513.080566,954.214233 &#10;&#9;C513.091187,955.827637 514.257019,957.433350 514.886108,959.042664 &#10;&#9;C512.730164,958.626221 510.204742,958.794800 508.475464,957.702698 &#10;&#9;C491.250305,946.825012 474.146362,935.754944 457.027802,924.708923 &#10;&#9;C429.372437,906.863647 401.740723,888.981750 374.081116,871.143005 &#10;&#9;C360.531311,862.404175 347.010315,853.616516 333.310303,845.118591 &#10;&#9;C330.630249,843.456299 329.938324,841.730103 329.945099,838.819885 &#10;&#9;C330.029602,802.487671 330.005707,766.155151 329.984833,729.822754 &#10;&#9;C329.983795,728.007690 329.756012,726.192810 329.262268,723.793579 &#10;&#9;C329.261017,720.987061 329.952728,718.765015 329.954987,716.542358 &#10;&#9;C330.030060,643.049316 330.039093,569.556274 330.057861,496.063202 &#10;z" stroke="none" opacity="1.000000" fill="#5186BE"/>

<path style="opacity: 1;" data-index="3" d="M460.729309,507.301392 &#10;&#9;C404.958313,469.558868 349.480286,432.036072 293.365265,394.082458 &#10;&#9;C301.721191,388.570251 309.631592,383.252838 317.640594,378.088348 &#10;&#9;C336.793427,365.737885 355.989044,353.453766 375.173981,341.153137 &#10;&#9;C411.224731,318.038910 447.294067,294.953583 483.323120,271.805573 &#10;&#9;C491.552094,266.518585 499.671478,261.059509 507.795410,255.611267 &#10;&#9;C511.138794,253.369080 513.693970,252.971115 517.639709,255.610641 &#10;&#9;C538.894470,269.829102 560.491943,283.535797 581.986023,297.395966 &#10;&#9;C606.324707,313.090424 630.676758,328.764313 655.027527,344.439972 &#10;&#9;C674.642029,357.066620 694.257019,369.692352 713.885376,382.297363 &#10;&#9;C719.959106,386.197815 726.077332,390.028809 732.560303,394.135559 &#10;&#9;C706.125244,412.050903 680.462097,429.512054 654.725769,446.864746 &#10;&#9;C630.765259,463.020111 606.696472,479.015045 582.731445,495.163879 &#10;&#9;C560.727722,509.991058 538.756714,524.868103 516.888489,539.893799 &#10;&#9;C514.048828,541.844910 512.220398,542.082581 509.252960,540.040527 &#10;&#9;C493.280487,529.049011 477.118713,518.332520 460.729309,507.301392 &#10;M601.296631,459.851776 &#10;&#9;C614.392761,451.014923 627.488953,442.178070 640.977661,433.076324 &#10;&#9;C634.456909,428.941467 628.341858,424.935242 622.104309,421.129974 &#10;&#9;C586.803040,399.593872 551.455383,378.133484 516.191162,356.537018 &#10;&#9;C513.940247,355.158508 512.597229,354.763947 510.098083,356.338074 &#10;&#9;C495.135010,365.762817 479.999695,374.914978 464.893707,384.111786 &#10;&#9;C439.953827,399.295624 414.986053,414.433746 390.053680,429.629913 &#10;&#9;C388.337158,430.676117 386.816956,432.044403 385.190155,433.274475 &#10;&#9;C409.246521,449.339569 432.943939,465.125000 456.598389,480.974609 &#10;&#9;C474.907684,493.242706 493.145813,505.617279 511.504883,517.809998 &#10;&#9;C512.255859,518.308716 514.150818,517.783875 515.123108,517.143860 &#10;&#9;C526.808960,509.451691 538.432434,501.664459 550.049927,493.868896 &#10;&#9;C566.894348,482.565948 583.720459,471.235779 601.296631,459.851776 &#10;z" stroke="none" opacity="1.000000" fill="#5387BF"/>

<path style="opacity: 1; visibility: hidden;" data-index="5" d="M195.082169,390.123230 &#10;&#9;C195.054688,424.955109 195.008286,459.786957 195.003479,494.618835 &#10;&#9;C194.991898,578.783997 194.999741,662.949219 194.999741,747.114380 &#10;&#9;C194.999741,748.902527 194.999725,750.690735 194.999725,753.431580 &#10;&#9;C187.569702,748.702332 180.731247,744.388794 173.931824,740.014648 &#10;&#9;C150.898636,725.196960 127.924438,710.286621 104.798668,695.615051 &#10;&#9;C101.838501,693.736938 100.933907,691.770935 100.936111,688.429688 &#10;&#9;C101.014778,569.265198 101.004272,450.100677 101.352768,330.658356 &#10;&#9;C103.790283,331.743988 105.870544,333.124176 107.973846,334.468323 &#10;&#9;C137.008087,353.022858 166.045517,371.572449 195.082169,390.123230 &#10;z" stroke="none" opacity="1.000000" fill="#5186BE"/>

<path style="opacity: 1; visibility: hidden;" data-index="7" d="M696.326050,723.102905 &#10;&#9;C696.002502,649.859009 696.003601,576.748535 695.992554,503.638031 &#10;&#9;C695.992249,501.645111 695.859680,499.652161 695.531494,497.337280 &#10;&#9;C702.065430,492.598572 708.776245,488.051819 715.664307,483.791718 &#10;&#9;C730.755981,474.457855 745.937561,465.269348 761.564819,455.726929 &#10;&#9;C761.564819,557.973938 761.564819,659.849487 761.564819,762.286865 &#10;&#9;C752.832153,757.088867 744.368225,752.040833 735.894592,747.009155 &#10;&#9;C723.442688,739.615173 710.980286,732.238892 698.537109,724.830261 &#10;&#9;C697.838928,724.414612 697.275269,723.772827 696.326050,723.102905 &#10;z" stroke="none" opacity="1.000000" fill="#5085BE"/>

<path style="opacity: 1; visibility: hidden;" data-index="9" d="M195.410309,389.984131 &#10;&#9;C166.045517,371.572449 137.008087,353.022858 107.973846,334.468323 &#10;&#9;C105.870544,333.124176 103.790283,331.743988 101.427872,330.195740 &#10;&#9;C113.814003,321.649048 126.447952,313.251129 139.136383,304.936310 &#10;&#9;C149.877762,297.897430 160.678680,290.949310 171.459579,283.970764 &#10;&#9;C184.798935,275.336121 198.095108,266.631989 211.568176,258.211029 &#10;&#9;C212.854507,257.407074 215.702881,257.736084 217.085693,258.654236 &#10;&#9;C245.588531,277.579315 273.983093,296.667511 302.406921,315.711700 &#10;&#9;C302.911224,316.049622 303.511108,316.244873 304.693481,316.802338 &#10;&#9;C296.019653,322.705200 287.773560,328.393982 279.450073,333.967194 &#10;&#9;C252.501648,352.011292 225.525116,370.013489 198.557495,388.028961 &#10;&#9;C197.628189,388.649841 196.678604,389.240387 195.410309,389.984131 &#10;z" stroke="none" opacity="1.000000" fill="#80C3ED"/>

<path style="opacity: 1; visibility: hidden;" data-index="11" d="M605.151062,244.474060 &#10;&#9;C605.752747,243.513763 606.403687,242.750961 607.211243,242.231659 &#10;&#9;C636.234314,223.568649 665.271973,204.928345 694.619629,186.164856 &#10;&#9;C694.931580,224.544693 694.931580,263.044617 694.931580,302.565979 &#10;&#9;C664.474670,282.937805 634.874023,263.861450 605.151062,244.474060 &#10;z" stroke="none" opacity="1.000000" fill="#1C2F44"/>

<path style="opacity: 1; visibility: hidden;" data-index="13" d="M600.925537,459.884521 &#10;&#9;C583.720459,471.235779 566.894348,482.565948 550.049927,493.868896 &#10;&#9;C538.432434,501.664459 526.808960,509.451691 515.123108,517.143860 &#10;&#9;C514.150818,517.783875 512.255859,518.308716 511.504883,517.809998 &#10;&#9;C493.145813,505.617279 474.907684,493.242706 456.598389,480.974609 &#10;&#9;C432.943939,465.125000 409.246521,449.339569 385.190155,433.274475 &#10;&#9;C386.816956,432.044403 388.337158,430.676117 390.053680,429.629913 &#10;&#9;C414.986053,414.433746 439.953827,399.295624 464.893707,384.111786 &#10;&#9;C479.999695,374.914978 495.135010,365.762817 510.098083,356.338074 &#10;&#9;C512.597229,354.763947 513.940247,355.158508 516.191162,356.537018 &#10;&#9;C551.455383,378.133484 586.803040,399.593872 622.104309,421.129974 &#10;&#9;C628.341858,424.935242 634.456909,428.941467 640.977661,433.076324 &#10;&#9;C627.488953,442.178070 614.392761,451.014923 600.925537,459.884521 &#10;z" stroke="none" opacity="1.000000" fill="#000000"/>
</svg>