<svg version="1.1" id="Layer_1" xmlns="http://www.w3.org/2000/svg" xmlns:xlink="http://www.w3.org/1999/xlink" x="0px" y="0px" width="100%" viewBox="0 0 1024 1024" enable-background="new 0 0 1024 1024" xml:space="preserve">

<path fill="#5186BE" opacity="1.000000" stroke="none" d="
M330.057861,496.063202 
	C341.991730,503.675079 353.934143,511.273651 365.857727,518.901550 
	C391.884766,535.551941 417.930389,552.173584 443.914825,568.890259 
	C465.295166,582.644958 486.591583,596.530151 507.949371,610.320068 
	C509.564484,611.362854 511.373352,612.105591 513.269958,613.442749 
	C513.298096,616.040100 513.018066,618.182556 513.017578,620.325073 
	C512.995728,712.294678 512.998779,804.264343 512.998779,896.233948 
	C512.998779,915.560913 512.953979,934.888123 513.080566,954.214233 
	C513.091187,955.827637 514.257019,957.433350 514.886108,959.042664 
	C512.730164,958.626221 510.204742,958.794800 508.475464,957.702698 
	C491.250305,946.825012 474.146362,935.754944 457.027802,924.708923 
	C429.372437,906.863647 401.740723,888.981750 374.081116,871.143005 
	C360.531311,862.404175 347.010315,853.616516 333.310303,845.118591 
	C330.630249,843.456299 329.938324,841.730103 329.945099,838.819885 
	C330.029602,802.487671 330.005707,766.155151 329.984833,729.822754 
	C329.983795,728.007690 329.756012,726.192810 329.262268,723.793579 
	C329.261017,720.987061 329.952728,718.765015 329.954987,716.542358 
	C330.030060,643.049316 330.039093,569.556274 330.057861,496.063202 
z" data-index="1" style="opacity: 1;"></path>
<path fill="#1B2E43" opacity="1.000000" stroke="none" d="
M515.222168,958.930481 
	C514.257019,957.433350 513.091187,955.827637 513.080566,954.214233 
	C512.953979,934.888123 512.998779,915.560913 512.998779,896.233948 
	C512.998779,804.264343 512.995728,712.294678 513.017578,620.325073 
	C513.018066,618.182556 513.298096,616.040100 513.619385,613.530029 
	C526.622559,604.843994 539.444397,596.510681 552.287476,588.210205 
	C577.590515,571.856750 602.887573,555.493835 628.220947,539.187500 
	C648.435913,526.175781 668.695129,513.232910 688.954285,500.290131 
	C690.751282,499.142151 692.693542,498.221741 695.178528,497.427429 
	C695.859680,499.652161 695.992249,501.645111 695.992554,503.638031 
	C696.003601,576.748535 696.002502,649.859009 696.003052,722.969482 
	C696.001953,761.127441 695.920532,799.285828 696.112244,837.442810 
	C696.133606,841.703247 694.643799,843.934021 691.208191,846.129089 
	C660.576050,865.700745 630.070496,885.470398 599.502930,905.143311 
	C571.990417,922.850037 544.447388,940.509277 516.912476,958.181213 
	C516.496216,958.448303 516.011169,958.608276 515.222168,958.930481 
z" data-index="2" style="opacity: 1;"></path>
<path fill="#5387BF" opacity="1.000000" stroke="none" d="
M460.729309,507.301392 
	C404.958313,469.558868 349.480286,432.036072 293.365265,394.082458 
	C301.721191,388.570251 309.631592,383.252838 317.640594,378.088348 
	C336.793427,365.737885 355.989044,353.453766 375.173981,341.153137 
	C411.224731,318.038910 447.294067,294.953583 483.323120,271.805573 
	C491.552094,266.518585 499.671478,261.059509 507.795410,255.611267 
	C511.138794,253.369080 513.693970,252.971115 517.639709,255.610641 
	C538.894470,269.829102 560.491943,283.535797 581.986023,297.395966 
	C606.324707,313.090424 630.676758,328.764313 655.027527,344.439972 
	C674.642029,357.066620 694.257019,369.692352 713.885376,382.297363 
	C719.959106,386.197815 726.077332,390.028809 732.560303,394.135559 
	C706.125244,412.050903 680.462097,429.512054 654.725769,446.864746 
	C630.765259,463.020111 606.696472,479.015045 582.731445,495.163879 
	C560.727722,509.991058 538.756714,524.868103 516.888489,539.893799 
	C514.048828,541.844910 512.220398,542.082581 509.252960,540.040527 
	C493.280487,529.049011 477.118713,518.332520 460.729309,507.301392 
M601.296631,459.851776 
	C614.392761,451.014923 627.488953,442.178070 640.977661,433.076324 
	C634.456909,428.941467 628.341858,424.935242 622.104309,421.129974 
	C586.803040,399.593872 551.455383,378.133484 516.191162,356.537018 
	C513.940247,355.158508 512.597229,354.763947 510.098083,356.338074 
	C495.135010,365.762817 479.999695,374.914978 464.893707,384.111786 
	C439.953827,399.295624 414.986053,414.433746 390.053680,429.629913 
	C388.337158,430.676117 386.816956,432.044403 385.190155,433.274475 
	C409.246521,449.339569 432.943939,465.125000 456.598389,480.974609 
	C474.907684,493.242706 493.145813,505.617279 511.504883,517.809998 
	C512.255859,518.308716 514.150818,517.783875 515.123108,517.143860 
	C526.808960,509.451691 538.432434,501.664459 550.049927,493.868896 
	C566.894348,482.565948 583.720459,471.235779 601.296631,459.851776 
z" data-index="3" style="opacity: 1;"></path>
<path fill="#1B2E43" opacity="1.000000" stroke="none" d="
M924.627197,330.563477 
	C924.751282,332.720978 924.983459,334.878448 924.983826,337.036011 
	C925.001404,453.702576 924.981018,570.369141 925.075134,687.035645 
	C925.078552,691.241882 924.119080,693.994446 920.318481,696.411987 
	C891.047485,715.031616 861.932434,733.896606 832.757263,752.667114 
	C832.524475,752.816895 832.128479,752.713074 830.988953,752.765320 
	C830.988953,632.166931 830.988953,511.614685 831.268799,390.410583 
	C848.923767,378.629547 866.274658,367.462189 883.681885,356.383392 
	C897.294128,347.719849 910.976196,339.166046 924.627197,330.563477 
z" data-index="4" style="opacity: 1;"></path>
<path fill="#5186BE" opacity="1.000000" stroke="none" d="
M195.082169,390.123230 
	C195.054688,424.955109 195.008286,459.786957 195.003479,494.618835 
	C194.991898,578.783997 194.999741,662.949219 194.999741,747.114380 
	C194.999741,748.902527 194.999725,750.690735 194.999725,753.431580 
	C187.569702,748.702332 180.731247,744.388794 173.931824,740.014648 
	C150.898636,725.196960 127.924438,710.286621 104.798668,695.615051 
	C101.838501,693.736938 100.933907,691.770935 100.936111,688.429688 
	C101.014778,569.265198 101.004272,450.100677 101.352768,330.658356 
	C103.790283,331.743988 105.870544,333.124176 107.973846,334.468323 
	C137.008087,353.022858 166.045517,371.572449 195.082169,390.123230 
z" data-index="5"></path>
<path fill="#80C3ED" opacity="1.000000" stroke="none" d="
M605.028748,244.163055 
	C596.885498,239.114517 588.679199,234.164581 580.611267,228.998428 
	C558.872253,215.078247 537.212830,201.033661 515.432373,187.179031 
	C514.264038,186.435852 511.860474,186.320572 510.731293,187.028549 
	C495.796326,196.392349 480.981232,205.947556 466.147614,215.472748 
	C451.320465,224.993759 436.506165,234.534790 421.160583,243.901703 
	C404.231476,233.070618 387.861481,222.352921 371.414093,211.755371 
	C358.031036,203.132278 344.555267,194.653122 331.120605,186.110107 
	C342.071655,178.725906 352.979858,171.277176 363.982269,163.970383 
	C390.066895,146.647385 416.190948,129.383789 442.309021,112.111244 
	C464.943695,97.142395 487.562592,82.148956 510.309753,67.352882 
	C511.629791,66.494240 514.518555,66.576439 515.870483,67.458038 
	C536.719604,81.054443 557.434814,94.856377 578.181335,108.610138 
	C608.831665,128.929596 639.461853,149.279785 670.146606,169.547119 
	C678.305603,174.936142 686.632812,180.070496 694.595215,185.803345 
	C665.271973,204.928345 636.234314,223.568649 607.211243,242.231659 
	C606.403687,242.750961 605.752747,243.513763 605.028748,244.163055 
z" data-index="6" style="opacity: 1;"></path>
<path fill="#5085BE" opacity="1.000000" stroke="none" d="
M696.326050,723.102905 
	C696.002502,649.859009 696.003601,576.748535 695.992554,503.638031 
	C695.992249,501.645111 695.859680,499.652161 695.531494,497.337280 
	C702.065430,492.598572 708.776245,488.051819 715.664307,483.791718 
	C730.755981,474.457855 745.937561,465.269348 761.564819,455.726929 
	C761.564819,557.973938 761.564819,659.849487 761.564819,762.286865 
	C752.832153,757.088867 744.368225,752.040833 735.894592,747.009155 
	C723.442688,739.615173 710.980286,732.238892 698.537109,724.830261 
	C697.838928,724.414612 697.275269,723.772827 696.326050,723.102905 
z" data-index="7"></path>
<path fill="#1B2E43" opacity="1.000000" stroke="none" d="
M329.758911,495.871277 
	C330.039093,569.556274 330.030060,643.049316 329.954987,716.542358 
	C329.952728,718.765015 329.261017,720.987061 328.848114,723.641724 
	C307.580292,736.686401 286.355072,749.298584 264.482727,762.295349 
	C264.482727,660.057129 264.482727,558.480957 264.482727,456.337860 
	C286.224548,469.501801 307.842285,482.590607 329.758911,495.871277 
z" data-index="8"></path>
<path fill="#80C3ED" opacity="1.000000" stroke="none" d="
M195.410309,389.984131 
	C166.045517,371.572449 137.008087,353.022858 107.973846,334.468323 
	C105.870544,333.124176 103.790283,331.743988 101.427872,330.195740 
	C113.814003,321.649048 126.447952,313.251129 139.136383,304.936310 
	C149.877762,297.897430 160.678680,290.949310 171.459579,283.970764 
	C184.798935,275.336121 198.095108,266.631989 211.568176,258.211029 
	C212.854507,257.407074 215.702881,257.736084 217.085693,258.654236 
	C245.588531,277.579315 273.983093,296.667511 302.406921,315.711700 
	C302.911224,316.049622 303.511108,316.244873 304.693481,316.802338 
	C296.019653,322.705200 287.773560,328.393982 279.450073,333.967194 
	C252.501648,352.011292 225.525116,370.013489 198.557495,388.028961 
	C197.628189,388.649841 196.678604,389.240387 195.410309,389.984131 
z" data-index="9"></path>
<path fill="#80C3ED" opacity="1.000000" stroke="none" d="
M924.644226,330.239746 
	C910.976196,339.166046 897.294128,347.719849 883.681885,356.383392 
	C866.274658,367.462189 848.923767,378.629547 831.260620,389.950989 
	C812.429016,377.724243 793.898376,365.285889 775.337952,352.892151 
	C758.905945,341.919678 742.440857,330.996704 725.989746,320.052856 
	C724.663879,319.170837 723.332947,318.296509 721.500671,317.085785 
	C728.876709,312.043304 736.016357,307.040100 743.278198,302.221069 
	C764.810791,287.931793 786.518250,273.900208 807.841370,259.306152 
	C811.866089,256.551483 813.925232,257.889771 817.051331,259.912445 
	C846.011963,278.650787 875.064880,297.246399 904.040344,315.961853 
	C911.010437,320.463867 917.792664,325.256836 924.644226,330.239746 
z" data-index="10" style="opacity: 1;"></path>
<path fill="#1C2F44" opacity="1.000000" stroke="none" d="
M605.151062,244.474060 
	C605.752747,243.513763 606.403687,242.750961 607.211243,242.231659 
	C636.234314,223.568649 665.271973,204.928345 694.619629,186.164856 
	C694.931580,224.544693 694.931580,263.044617 694.931580,302.565979 
	C664.474670,282.937805 634.874023,263.861450 605.151062,244.474060 
z" data-index="11" style="opacity: 1;"></path>
<path fill="#5287BE" opacity="1.000000" stroke="none" d="
M331.067017,186.564148 
	C344.555267,194.653122 358.031036,203.132278 371.414093,211.755371 
	C387.861481,222.352921 404.231476,233.070618 420.814270,244.040466 
	C411.006714,250.922485 401.061035,257.564056 391.022736,264.062561 
	C377.693665,272.691376 364.295441,281.213348 350.920654,289.771484 
	C344.539185,293.854797 338.143280,297.915558 331.013458,302.458313 
	C331.013458,263.344818 331.013458,225.181503 331.067017,186.564148 
z" data-index="12"></path>

</svg>